
<svg xmlns="http://www.w3.org/2000/svg" version="1.1" xmlns:xlink="http://www.w3.org/1999/xlink" preserveAspectRatio="xMidYMid" x="0px" y="0px" width="400px" height="594px" viewBox="0 0 400 594">
<defs>
<path id="Layer0_0_1_STROKES" stroke="#D84700" stroke-width="2" stroke-linejoin="round" stroke-linecap="round" fill="none" d="
M 396.8 3.2
L 396.8 394.65 201.15 590.3 5.35 394.65 5.35 3.2 201.15 199.05 396.8 3.2 298.85 296.8 396.8 394.65 298.85 394.65 255.45 427.2 201.15 590.3 146.8 427.2 103.2 394.65 5.35 394.65 103.2 296.8 5.35 3.2
M 103.2 394.65
L 135.75 394.65 103.2 296.8 201.15 199.05 298.85 296.8 266.3 394.65 298.85 394.65
M 255.45 427.2
L 266.3 394.65 201.15 394.65 201.15 590.3
M 201.15 199.05
L 201.15 394.65 135.75 394.65 146.8 427.2"/>
</defs>

<g transform="matrix( 1, 0, 0, 1, 0,0) ">
<use xlink:href="#Layer0_0_1_STROKES"/>
</g>
</svg>
