<?xml version="1.0" encoding="utf-8"?><svg id="FoxHead" image-rendering="auto" baseProfile="basic" version="1.1" x="0px" y="0px" width="400" height="594" xmlns="http://www.w3.org/2000/svg" xmlns:xlink="http://www.w3.org/1999/xlink" preserveAspectRatio="xMidYMid"><g id="Scene-1r1" overflow="visible"><g display="none"><path id="Layer30_0_1_STROKES" stroke="#D84700" stroke-width="2" stroke-linejoin="round" stroke-linecap="round" fill="none" d="M396.85 3.2L396.85 394.65 201.2 590.3 5.4 394.65 5.4 3.2 201.2 199.05 396.85 3.2 298.9 296.8 396.85 394.65 298.9 394.65 255.5 427.2 201.2 590.3 146.85 427.2 103.25 394.65 5.4 394.65 103.25 296.8 5.4 3.2M103.25 394.65L135.8 394.65 103.25 296.8 201.2 199.05 298.9 296.8 266.35 394.65 298.9 394.65M201.2 199.05L201.2 394.65 266.35 394.65 255.5 427.2M201.2 590.3L201.2 394.65 135.8 394.65 146.85 427.2"/><animate attributeName="display" fill="freeze" repeatCount="1" dur="1.5s" keyTimes="0;.967;1" values="none;inline;inline"/></g><g display="none"><path id="Layer29_0_1_STROKES" stroke="#D84700" stroke-width="2" stroke-linejoin="round" stroke-linecap="round" fill="none" d="M396.85 84.85L396.85 3.2 201.2 199.05 298.9 296.8 380.55 52.25M396.85 117.4L396.85 394.65 201.2 590.3 5.4 394.65 5.4 117.4M5.4 84.85L5.4 3.2 201.2 199.05 201.2 394.65 266.35 394.65 298.9 296.8 396.85 394.65 298.9 394.65 255.5 427.2 201.2 590.3 146.85 427.2 103.25 394.65 5.4 394.65 103.25 296.8 21.7 52.25M103.25 394.65L135.8 394.65 103.25 296.8 201.2 199.05M298.9 394.65L266.35 394.65 255.5 427.2M201.2 590.3L201.2 394.65 135.8 394.65 146.85 427.2"/><animate attributeName="display" fill="freeze" repeatCount="1" dur="1.5s" keyTimes="0;.933;.967;1" values="none;inline;none;none"/></g><g display="none"><path id="Layer28_0_1_STROKES" stroke="#D84700" stroke-width="2" stroke-linejoin="round" stroke-linecap="round" fill="none" d="M396.85 68.55L396.85 3.2 201.2 199.05 298.9 296.8 364.25 101.15M396.85 133.7L396.85 394.65 201.2 590.3 5.4 394.65 5.4 133.7M5.4 68.55L5.4 3.2 201.2 199.05 201.2 394.65 266.35 394.65 298.9 296.8 396.85 394.65 298.9 394.65 255.5 427.2 201.2 590.3 146.85 427.2 103.25 394.65 5.4 394.65 103.25 296.8 38 101.15M103.25 394.65L135.8 394.65 103.25 296.8 201.2 199.05M298.9 394.65L266.35 394.65 255.5 427.2M201.2 590.3L201.2 394.65 135.8 394.65 146.85 427.2"/><animate attributeName="display" fill="freeze" repeatCount="1" dur="1.5s" keyTimes="0;.9;.933;1" values="none;inline;none;none"/></g><g display="none"><path id="Layer27_0_1_STROKES" stroke="#D84700" stroke-width="2" stroke-linejoin="round" stroke-linecap="round" fill="none" d="M396.85 52.25L396.85 3.2 201.2 199.05 298.9 296.8 348 150M396.85 150L396.85 394.65 201.2 590.3 5.4 394.65 5.4 150M5.4 52.25L5.4 3.2 201.2 199.05 201.2 394.65 266.35 394.65 298.9 296.8 396.85 394.65 298.9 394.65 255.5 427.2 201.2 590.3 146.85 427.2 103.25 394.65 5.4 394.65 103.25 296.8 54.4 150M103.25 394.65L135.8 394.65 103.25 296.8 201.2 199.05M298.9 394.65L266.35 394.65 255.5 427.2M201.2 590.3L201.2 394.65 135.8 394.65 146.85 427.2"/><animate attributeName="display" fill="freeze" repeatCount="1" dur="1.5s" keyTimes="0;.867;.9;1" values="none;inline;none;none"/></g><g display="none"><path id="Layer26_0_1_STROKES" stroke="#D84700" stroke-width="2" stroke-linejoin="round" stroke-linecap="round" fill="none" d="M396.85 35.75L396.85 3.2 201.2 199.05 298.9 296.8 331.5 199.05M396.85 166.3L396.85 394.65 201.2 590.3 5.4 394.65 5.4 166.3M5.4 35.75L5.4 3.2 201.2 199.05 201.2 394.65 266.35 394.65 298.9 296.8 396.85 394.65 298.9 394.65 255.5 427.2 201.2 590.3 146.85 427.2 103.25 394.65 5.4 394.65 103.25 296.8 70.65 199.05M103.25 394.65L135.8 394.65 103.25 296.8 201.2 199.05M298.9 394.65L266.35 394.65 255.5 427.2M201.2 590.3L201.2 394.65 135.8 394.65 146.85 427.2"/><animate attributeName="display" fill="freeze" repeatCount="1" dur="1.5s" keyTimes="0;.833;.867;1" values="none;inline;none;none"/></g><g display="none"><path id="Layer25_0_1_STROKES" stroke="#D84700" stroke-width="2" stroke-linejoin="round" stroke-linecap="round" fill="none" d="M396.85 19.5L396.85 3.2 201.2 199.05 298.9 296.8 315.2 247.95M396.85 182.6L396.85 394.65 201.2 590.3 5.4 394.65 5.4 182.6M5.4 19.5L5.4 3.2 201.2 199.05 201.2 394.65 266.35 394.65 298.9 296.8 396.85 394.65 298.9 394.65 255.5 427.2 201.2 590.3 146.85 427.2 103.25 394.65 5.4 394.65 103.25 296.8 86.95 247.95M103.25 394.65L135.8 394.65 103.25 296.8 201.2 199.05M298.9 394.65L266.35 394.65 255.5 427.2M201.2 590.3L201.2 394.65 135.8 394.65 146.85 427.2"/><animate attributeName="display" fill="freeze" repeatCount="1" dur="1.5s" keyTimes="0;.8;.833;1" values="none;inline;none;none"/></g><g display="none"><path id="Layer24_0_1_STROKES" stroke="#D84700" stroke-width="2" stroke-linejoin="round" stroke-linecap="round" fill="none" d="M396.85 3.2L201.2 199.05 298.9 296.8 396.85 394.65 396.85 199.05M5.4 199.05L5.4 394.65 103.25 296.8 201.2 199.05 5.4 3.2M5.4 394.65L135.8 394.65 103.25 296.8M201.2 199.05L201.2 394.65 266.35 394.65 298.9 296.8M201.2 394.65L135.8 394.65 201.2 590.3 201.2 394.65ZM396.85 394.65L201.2 590.3 5.4 394.65M201.2 590.3L266.35 394.65 396.85 394.65"/><animate attributeName="display" fill="freeze" repeatCount="1" dur="1.5s" keyTimes="0;.767;.8;1" values="none;inline;none;none"/></g><g display="none"><path id="Layer23_0_1_STROKES" stroke="#D84700" stroke-width="2" stroke-linejoin="round" stroke-linecap="round" fill="none" d="M396.85 215.35L396.85 394.65 201.2 590.3 5.4 394.65 5.4 215.35M5.4 394.65L135.8 394.65 119.55 345.75M380.55 378.35L201.2 199.05 201.2 394.65 266.35 394.65 282.65 345.75M21.7 378.35L201.2 199.05 21.7 19.5M201.2 394.65L135.8 394.65 201.2 590.3 201.2 394.65ZM201.2 199.05L380.55 19.5M201.2 590.3L266.35 394.65 396.85 394.65"/><animate attributeName="display" fill="freeze" repeatCount="1" dur="1.5s" keyTimes="0;.733;.767;1" values="none;inline;none;none"/></g><g display="none"><path id="Layer22_0_1_STROKES" stroke="#D84700" stroke-width="2" stroke-linejoin="round" stroke-linecap="round" fill="none" d="M396.85 231.65L396.85 394.65 201.2 590.3 5.4 394.65 5.4 231.65M201.2 590.3L135.8 394.65 5.4 394.65M364.25 362.05L201.2 199.05 201.2 394.65 266.35 394.65 396.85 394.65M38 362.05L201.2 199.05 38 35.75M201.2 590.3L201.2 394.65 135.8 394.65M201.2 199.05L364.25 35.75M201.2 590.3L266.35 394.65"/><animate attributeName="display" fill="freeze" repeatCount="1" dur="1.5s" keyTimes="0;.7;.733;1" values="none;inline;none;none"/></g><g display="none"><path id="Layer21_0_1_STROKES" stroke="#D84700" stroke-width="2" stroke-linejoin="round" stroke-linecap="round" fill="none" d="M396.85 247.95L396.85 394.65 201.2 590.3 5.4 394.65 5.4 247.95M348 345.75L201.2 199.05 201.2 394.65 396.85 394.65M54.4 345.75L201.2 199.05 54.4 52.25M152.1 443.5L201.2 590.3 201.2 394.65 5.4 394.65M201.2 590.3L250.05 443.5M201.2 199.05L348 52.25"/><animate attributeName="display" fill="freeze" repeatCount="1" dur="1.5s" keyTimes="0;.667;.7;1" values="none;inline;none;none"/></g><g display="none"><path id="Layer20_0_1_STROKES" stroke="#D84700" stroke-width="2" stroke-linejoin="round" stroke-linecap="round" fill="none" d="M396.85 264.25L396.85 394.65 201.2 590.3 5.4 394.65 5.4 264.25M331.5 329.4L201.2 199.05 201.2 394.65 396.85 394.65M70.65 329.4L201.2 199.05 70.65 68.55M168.4 492.55L201.2 590.3 201.2 394.65 5.4 394.65M201.2 590.3L233.75 492.55M201.2 199.05L331.5 68.55"/><animate attributeName="display" fill="freeze" repeatCount="1" dur="1.5s" keyTimes="0;.633;.667;1" values="none;inline;none;none"/></g><g display="none"><path id="Layer19_0_1_STROKES" stroke="#D84700" stroke-width="2" stroke-linejoin="round" stroke-linecap="round" fill="none" d="M396.85 280.55L396.85 394.7 201.2 590.35 5.4 394.7 5.4 280.55M315.2 313.15L201.2 199.1 201.2 394.7 396.85 394.7M184.7 541.5L201.2 590.35 201.2 394.7 5.4 394.7M86.95 313.15L201.2 199.1 86.95 84.9M201.2 199.1L315.2 84.9M201.2 590.35L217.45 541.5"/><animate attributeName="display" fill="freeze" repeatCount="1" dur="1.5s" keyTimes="0;.6;.633;1" values="none;inline;none;none"/></g><g display="none"><path id="Layer18_0_1_STROKES" stroke="#D84700" stroke-width="2" stroke-linejoin="round" stroke-linecap="round" fill="none" d="M298.9 296.8L201.2 199.05 201.2 394.65 396.85 394.65 396.85 296.8M396.85 394.65L201.2 590.3 5.4 394.65 5.4 296.8M201.2 590.3L201.2 394.65 5.4 394.65M103.25 296.8L201.2 199.05 103.25 101.15M298.9 101.15L201.2 199.05"/><animate attributeName="display" fill="freeze" repeatCount="1" dur="1.5s" keyTimes="0;.567;.6;1" values="none;inline;none;none"/></g><g display="none"><path id="Layer17_0_1_STROKES" stroke="#D84700" stroke-width="2" stroke-linejoin="round" stroke-linecap="round" fill="none" d="M396.85 313.15L396.85 394.7 315.2 476.15M5.4 313.15L5.4 394.7 201.2 394.7 201.2 199.1 119.55 280.55M282.65 117.45L201.2 199.1 282.65 280.55M119.55 117.45L201.2 199.1M282.65 508.9L201.2 590.35 119.55 508.9M396.85 394.7L201.2 394.7 201.2 590.35M5.4 394.7L86.95 476.15"/><animate attributeName="display" fill="freeze" repeatCount="1" dur="1.5s" keyTimes="0;.533;.567;1" values="none;inline;none;none"/></g><g display="none"><path id="Layer16_0_1_STROKES" stroke="#D84700" stroke-width="2" stroke-linejoin="round" stroke-linecap="round" fill="none" d="M266.35 264.25L201.2 199.05 201.2 394.65 396.85 394.65 396.85 329.4M5.4 329.4L5.4 394.65 201.2 394.65 201.2 590.3 266.35 525.15M135.8 264.25L201.2 199.05 135.8 133.7M266.35 133.7L201.2 199.05M135.8 525.15L201.2 590.3M331.5 459.8L396.85 394.65M5.4 394.65L70.65 459.8"/><animate attributeName="display" fill="freeze" repeatCount="1" dur="1.5s" keyTimes="0;.5;.533;1" values="none;inline;none;none"/></g><g display="none"><path id="Layer15_0_1_STROKES" stroke="#D84700" stroke-width="2" stroke-linejoin="round" stroke-linecap="round" fill="none" d="M396.85 345.75L396.85 394.65 348 443.5M54.4 443.5L5.4 394.65 5.4 345.75M250.05 247.95L201.2 199.05 201.2 394.65 396.85 394.65M152.1 541.45L201.2 590.3 201.2 394.65 5.4 394.65M152.1 247.95L201.2 199.05 152.1 150M250.05 150L201.2 199.05M201.2 590.3L250.05 541.45"/><animate attributeName="display" fill="freeze" repeatCount="1" dur="1.5s" keyTimes="0;.467;.5;1" values="none;inline;none;none"/></g><g display="none"><path id="Layer14_0_1_STROKES" stroke="#D84700" stroke-width="2" stroke-linejoin="round" stroke-linecap="round" fill="none" d="M233.75 231.7L201.2 199.1 201.2 394.7 396.85 394.7 396.85 362.1M38 427.25L5.4 394.7 5.4 362.1M168.4 231.7L201.2 199.1 168.4 166.35M168.4 557.8L201.2 590.35 201.2 394.7 5.4 394.7M201.2 199.1L233.75 166.35M201.2 590.35L233.75 557.8M396.85 394.7L364.25 427.25"/><animate attributeName="display" fill="freeze" repeatCount="1" dur="1.5s" keyTimes="0;.433;.467;1" values="none;inline;none;none"/></g><g display="none"><path id="Layer13_0_1_STROKES" stroke="#D84700" stroke-width="2" stroke-linejoin="round" stroke-linecap="round" fill="none" d="M396.85 378.35L396.85 394.65 380.55 410.95M5.4 378.35L5.4 394.65 201.2 394.65 201.2 199.05 184.7 215.35M217.45 182.6L201.2 199.05 217.45 215.35M184.7 182.6L201.2 199.05M184.7 574L201.2 590.3 201.2 394.65 396.85 394.65M201.2 590.3L217.45 574M5.4 394.65L21.7 410.95"/><animate attributeName="display" fill="freeze" repeatCount="1" dur="1.5s" keyTimes="0;.4;.433;1" values="none;inline;none;none"/></g><g display="none"><path id="Layer12_0_1_STROKES" stroke="#D84700" stroke-width="2" stroke-linejoin="round" stroke-linecap="round" fill="none" d="M5.4 394.65L201.2 394.65 201.2 199.05M396.85 394.65L201.2 394.65 201.2 590.3"/><animate attributeName="display" fill="freeze" repeatCount="1" dur="1.5s" keyTimes="0;.367;.4;1" values="none;inline;none;none"/></g><g display="none"><path id="Layer11_0_1_STROKES" stroke="#D84700" stroke-width="2" stroke-linejoin="round" stroke-linecap="round" fill="none" d="M201.2 215.35L201.2 394.65 380.55 394.65M201.2 574L201.2 394.65 21.7 394.65"/><animate attributeName="display" fill="freeze" repeatCount="1" dur="1.5s" keyTimes="0;.333;.367;1" values="none;inline;none;none"/></g><g display="none"><path id="Layer10_0_1_STROKES" stroke="#D84700" stroke-width="2" stroke-linejoin="round" stroke-linecap="round" fill="none" d="M38 394.65L201.2 394.65 201.2 231.65M364.25 394.65L201.2 394.65 201.2 557.75"/><animate attributeName="display" fill="freeze" repeatCount="1" dur="1.5s" keyTimes="0;.3;.333;1" values="none;inline;none;none"/></g><g display="none"><path id="Layer9_0_1_STROKES" stroke="#D84700" stroke-width="2" stroke-linejoin="round" stroke-linecap="round" fill="none" d="M54.4 394.65L201.2 394.65 201.2 247.95M348 394.65L201.2 394.65 201.2 541.45"/><animate attributeName="display" fill="freeze" repeatCount="1" dur="1.5s" keyTimes="0;.267;.3;1" values="none;inline;none;none"/></g><g display="none"><path id="Layer8_0_1_STROKES" stroke="#D84700" stroke-width="2" stroke-linejoin="round" stroke-linecap="round" fill="none" d="M70.6 394.65L201.15 394.65 201.15 264.25M331.45 394.65L201.15 394.65 201.15 525.15"/><animate attributeName="display" fill="freeze" repeatCount="1" dur="1.5s" keyTimes="0;.233;.267;1" values="none;inline;none;none"/></g><g display="none"><path id="Layer7_0_1_STROKES" stroke="#D84700" stroke-width="2" stroke-linejoin="round" stroke-linecap="round" fill="none" d="M86.9 394.65L201.15 394.65 201.15 280.5M315.15 394.65L201.15 394.65 201.15 508.85"/><animate attributeName="display" fill="freeze" repeatCount="1" dur="1.5s" keyTimes="0;.2;.233;1" values="none;inline;none;none"/></g><g display="none"><path id="Layer6_0_1_STROKES" stroke="#D84700" stroke-width="2" stroke-linejoin="round" stroke-linecap="round" fill="none" d="M201.15 296.8L201.15 394.65 298.85 394.65M201.15 492.55L201.15 394.65 103.2 394.65"/><animate attributeName="display" fill="freeze" repeatCount="1" dur="1.5s" keyTimes="0;.167;.2;1" values="none;inline;none;none"/></g><g display="none"><path id="Layer5_0_1_STROKES" stroke="#D84700" stroke-width="2" stroke-linejoin="round" stroke-linecap="round" fill="none" d="M201.2 313.15L201.2 394.7 282.65 394.7M201.2 476.15L201.2 394.7 119.55 394.7"/><animate attributeName="display" fill="freeze" repeatCount="1" dur="1.5s" keyTimes="0;.133;.167;1" values="none;inline;none;none"/></g><g display="none"><path id="Layer4_0_1_STROKES" stroke="#D84700" stroke-width="2" stroke-linejoin="round" stroke-linecap="round" fill="none" d="M201.15 329.45L201.15 394.7 266.3 394.7M201.15 459.85L201.15 394.7 135.75 394.7"/><animate attributeName="display" fill="freeze" repeatCount="1" dur="1.5s" keyTimes="0;.1;.133;1" values="none;inline;none;none"/></g><g display="none"><path id="Layer3_0_1_STROKES" stroke="#D84700" stroke-width="2" stroke-linejoin="round" stroke-linecap="round" fill="none" d="M152.05 394.7L201.15 394.7 201.15 345.8M250 394.7L201.15 394.7 201.15 443.55"/><animate attributeName="display" fill="freeze" repeatCount="1" dur="1.5s" keyTimes="0;.067;.1;1" values="none;inline;none;none"/></g><g display="none"><path id="Layer2_0_1_STROKES" stroke="#D84700" stroke-width="2" stroke-linejoin="round" stroke-linecap="round" fill="none" d="M168.35 394.65L201.15 394.65 201.15 362.05M233.7 394.65L201.15 394.65 201.15 427.2"/><animate attributeName="display" fill="freeze" repeatCount="1" dur="1.5s" keyTimes="0;.033;.067;1" values="none;inline;none;none"/></g><g><path id="Layer1_0_1_STROKES" stroke="#D84700" stroke-width="2" stroke-linejoin="round" stroke-linecap="round" fill="none" d="M207.6 378.35L207.6 394.65 223.85 394.65M191.3 394.65L207.6 394.65 207.6 410.95"/><animate attributeName="display" fill="freeze" repeatCount="1" dur="1.5s" keyTimes="0;.033;1" values="inline;none;none"/></g></g></svg>